<svg xmlns="http://www.w3.org/2000/svg" viewBox="0 0 64 64" width="64" height="64">
  <circle cx="32" cy="32" r="6" fill="#e91e63"></circle>
  <path d="M32 10c3 0 5 7 5 10s-2 4-5 4-5-1-5-4 2-10 5-10z" fill="#f8bbd0"></path>
  <path d="M32 54c-3 0-5-7-5-10s2-4 5-4 5 1 5 4-2 10-5 10z" fill="#f8bbd0"></path>
  <path d="M10 32c0-3 7-5 10-5s4 2 4 5-1 5-4 5-10-2-10-5z" fill="#f8bbd0"></path>
  <path d="M54 32c0 3-7 5-10 5s-4-2-4-5 1-5 4-5 10 2 10 5z" fill="#f8bbd0"></path>
  <path d="M17 17c2-2 9 2 11 4s1 4-1 6-4 2-6 0-6-9-4-11z" fill="#f8bbd0"></path>
  <path d="M47 47c-2 2-9-2-11-4s-1-4 1-6 4-2 6 0 6 9 4 11z" fill="#f8bbd0"></path>
  <path d="M47 17c2 2-2 9-4 11s-4 1-6-1-2-4 0-6 9-6 11-4z" fill="#f8bbd0"></path>
  <path d="M17 47c-2-2 2-9 4-11s4-1 6 1 2 4 0 6-9 6-11 4z" fill="#f8bbd0"></path>
</svg>
